<svg width="237" height="146" viewBox="0 0 237 146" fill="none" xmlns="http://www.w3.org/2000/svg">
<path d="M233.177 0H3.82258C1.70869 0 0 1.72126 0 3.84211V142.158C0 144.279 1.70869 146 3.82258 146H233.177C235.291 146 237 144.279 237 142.158V3.84211C237 1.72126 235.291 0 233.177 0ZM194.952 80.6842C190.735 80.6842 187.306 77.2378 187.306 73C187.306 68.7622 190.735 65.3158 194.952 65.3158C199.168 65.3158 202.597 68.7622 202.597 73C202.597 77.2378 199.168 80.6842 194.952 80.6842ZM194.202 57.7084C186.125 58.1118 179.661 64.7856 179.661 73C179.661 81.2144 186.125 87.8882 194.202 88.2916L229.355 95.361V122.947H217.887C190.487 122.947 168.194 100.54 168.194 73C168.194 45.4598 190.487 23.0526 217.887 23.0526H229.355V50.6389L194.202 57.7084ZM206.523 82.9357C208.808 80.2462 210.242 76.8037 210.242 73C210.242 69.1963 208.808 65.7538 206.523 63.0643L229.355 58.4768V87.527L206.523 82.9357ZM114.677 91.8225C105.966 90.0359 99.3871 82.2787 99.3871 73C99.3871 63.7213 105.966 55.9641 114.677 54.1775V91.8225ZM122.323 54.1775C131.034 55.9641 137.613 63.7213 137.613 73C137.613 82.2787 131.034 90.0359 122.323 91.8225V54.1775ZM34.4032 73C34.4032 68.7622 37.8321 65.3158 42.0484 65.3158C46.2647 65.3158 49.6935 68.7622 49.6935 73C49.6935 77.2378 46.2647 80.6842 42.0484 80.6842C37.8321 80.6842 34.4032 77.2378 34.4032 73ZM30.4774 82.9357L7.64516 87.5232V58.4768L30.4774 63.0682C28.1915 65.7538 26.7581 69.1963 26.7581 73C26.7581 76.8037 28.1915 80.2462 30.4774 82.9357ZM7.64516 95.361L42.7976 88.2954C50.8747 87.8882 57.3387 81.2144 57.3387 73C57.3387 64.7856 50.8747 58.1118 42.7976 57.7084L7.64516 50.6389V23.0526H19.1129C46.5132 23.0526 68.8065 45.4598 68.8065 73C68.8065 100.54 46.5132 122.947 19.1129 122.947H7.64516V95.361ZM7.64516 130.632H19.1129C50.7295 130.632 76.4516 104.778 76.4516 73C76.4516 41.2219 50.7295 15.3684 19.1129 15.3684H7.64516V7.68421H114.677V46.4126C101.734 48.2876 91.7419 59.4796 91.7419 73C91.7419 86.5204 101.734 97.7124 114.677 99.5874V138.316H7.64516V130.632ZM122.323 138.316V99.5874C135.266 97.7124 145.258 86.5204 145.258 73C145.258 59.4796 135.266 48.2876 122.323 46.4126V7.68421H229.355V15.3684H217.887C186.271 15.3684 160.548 41.2219 160.548 73C160.548 104.778 186.271 130.632 217.887 130.632H229.355V138.316H122.323Z" fill="black"/>
</svg>
