<svg width="29" height="29" viewBox="0 0 29 29" fill="none" xmlns="http://www.w3.org/2000/svg">
<path fill-rule="evenodd" clip-rule="evenodd" d="M2.657 6.137C2.607 6.184 2.567 6.241 2.54 6.304C1.154 8.321 0.265 10.706 0.051 13.28C0.027 13.329 0.00999995 13.383 0.00399995 13.44C-0.00500005 13.515 0.00300005 13.587 0.024 13.654C0.00800005 13.934 0 14.216 0 14.5C0 17.54 0.938 20.363 2.54 22.696C2.567 22.759 2.607 22.816 2.657 22.863C5.284 26.575 9.611 29 14.5 29C18.704 29 22.492 27.207 25.141 24.346C25.145 24.341 25.15 24.336 25.154 24.332C27.541 21.747 29 18.293 29 14.5C29 10.707 27.541 7.253 25.154 4.668C25.15 4.664 25.145 4.659 25.141 4.654C22.492 1.793 18.704 0 14.5 0C9.611 0 5.284 2.425 2.657 6.137ZM22.524 17.438C22.407 18.281 22.198 19.128 21.882 19.973C20.841 22.754 18.645 25.518 14.7 27.999C18.487 27.943 21.897 26.326 24.317 23.763C24.836 21.067 24.361 19.185 23.341 18.087C23.096 17.823 22.821 17.607 22.524 17.438ZM21.569 17.068C20.203 16.757 18.605 17.218 17.336 18.37C11.393 23.767 7.695 23.387 4.083 23.084C6.239 25.697 9.359 27.486 12.897 27.906C17.409 25.382 19.859 22.526 20.945 19.622C21.264 18.771 21.466 17.917 21.569 17.068ZM27.998 14.245C27.5 14.417 26.713 14.631 25.523 14.817C24.751 14.938 23.798 15.05 22.63 15.132C22.648 15.543 22.648 15.956 22.626 16.372C23.162 16.609 23.654 16.954 24.074 17.407C25.033 18.439 25.64 20.062 25.509 22.311C27.078 20.105 28 17.41 28 14.5C28 14.415 27.999 14.33 27.998 14.245ZM1.007 14.064C1.002 14.208 1 14.354 1 14.5C1 17.282 1.843 19.869 3.288 22.018C6.981 22.28 10.588 23.148 16.664 17.63C18.155 16.275 20.016 15.747 21.647 16.065C21.657 15.772 21.656 15.481 21.645 15.191C17.494 15.4 11.005 15.247 1.007 14.064ZM21.371 12.98C19.809 13.191 18.072 12.649 16.664 11.37C10.588 5.852 6.981 6.72 3.288 6.982C2.095 8.757 1.312 10.83 1.076 13.065C11.018 14.244 17.457 14.401 21.568 14.195C21.52 13.786 21.454 13.381 21.371 12.98ZM25.509 6.689C25.64 8.938 25.033 10.561 24.074 11.593C23.576 12.13 22.977 12.515 22.322 12.75C22.419 13.207 22.496 13.669 22.55 14.136C23.685 14.056 24.614 13.948 25.368 13.829C26.817 13.602 27.586 13.347 27.938 13.202C27.708 10.79 26.842 8.563 25.509 6.689ZM13.856 1.015C9.926 1.2 6.433 3.069 4.083 5.916C7.695 5.613 11.393 5.233 17.336 10.63C18.473 11.662 19.873 12.14 21.135 12.004C20.035 8.024 17.424 4.572 15.621 2.621C14.842 1.778 14.221 1.219 13.942 1.041C13.913 1.035 13.884 1.026 13.856 1.015ZM15.467 1.034C15.732 1.288 16.032 1.592 16.356 1.943C18.245 3.987 20.932 7.603 22.084 11.773C22.551 11.589 22.979 11.304 23.341 10.913C24.361 9.815 24.836 7.933 24.317 5.237C22.062 2.848 18.946 1.281 15.467 1.034Z" fill="black"/>
</svg>
