<svg width="237" height="146" viewBox="0 0 237 146" fill="none" xmlns="http://www.w3.org/2000/svg">
<path d="M2.58885 0.0103694C1.88827 0.0479123 1.23086 0.312416 0.750769 0.749994C0.270675 1.18757 0.0040817 1.76527 0.00538768 2.36507V25.691C0.00135296 25.7645 0.00135296 25.8381 0.00538768 25.9116V51.5924C0.00135296 51.6659 0.00135296 51.7395 0.00538768 51.813V94.1971C-0.00179589 94.2951 -0.00179589 94.3934 0.00538768 94.4915V120.099C-0.00179589 120.197 -0.00179589 120.295 0.00538768 120.393V143.645C0.0054829 144.27 0.295846 144.869 0.81262 145.31C1.32939 145.752 2.03026 146 2.76108 146H234.239C234.97 146 235.671 145.752 236.187 145.31C236.704 144.869 236.995 144.27 236.995 143.645V120.393C237.002 120.295 237.002 120.197 236.995 120.099V94.4915C237.002 94.3934 237.002 94.2951 236.995 94.1971V51.813C236.999 51.7395 236.999 51.6659 236.995 51.5924V25.9116C236.999 25.8381 236.999 25.7645 236.995 25.691V2.36507C237.006 1.81004 236.788 1.26936 236.378 0.838531C235.968 0.407703 235.394 0.114411 234.756 0.0103694C234.584 -0.00345648 234.411 -0.00345648 234.239 0.0103694H2.76108C2.70368 0.00883624 2.64624 0.00883624 2.58885 0.0103694ZM5.51677 4.71962H115.744V46.8642C100.321 48.0583 91 59.1349 91 72.6185C91 86.1021 100.321 97.1788 115.744 98.3727V141.291H5.51677V122.454H52.3635C53.0943 122.454 53.7952 122.205 54.3119 121.764C54.8287 121.322 55.1191 120.723 55.1192 120.099V25.9117C55.1191 25.2873 54.8287 24.6884 54.312 24.2468C53.7952 23.8052 53.0943 23.5571 52.3635 23.5571H5.51677V4.71962ZM121.256 4.71962H231.483V23.5571H184.637C183.906 23.5571 183.205 23.8052 182.688 24.2468C182.171 24.6884 181.881 25.2873 181.881 25.9117V120.099C181.881 120.723 182.171 121.322 182.688 121.764C183.205 122.205 183.906 122.454 184.637 122.454H231.483V141.291H121.256V98.3727C136.679 97.1788 146 86.1021 146 72.6185C146 59.1349 136.679 48.0583 121.256 46.8642V4.71962ZM5.51677 28.2664H49.6078V117.744H5.51677V96.5522H30.318C31.0488 96.5522 31.7497 96.3041 32.2665 95.8625C32.7833 95.4209 33.0736 94.8219 33.0737 94.1974V51.8133C33.0736 51.1888 32.7832 50.5899 32.2664 50.1483C31.7497 49.7068 31.0488 49.4586 30.318 49.4586H5.51677V28.2664ZM187.392 28.2664H231.483V49.4586H206.682C205.951 49.4586 205.25 49.7068 204.734 50.1483C204.217 50.5899 203.926 51.1888 203.926 51.8133V94.1974C203.926 94.8219 204.217 95.4209 204.733 95.8625C205.25 96.3041 205.951 96.5522 206.682 96.5522H231.483V117.744H187.392V28.2664ZM115.744 51.5V93.7369C103.299 92.5871 96.5114 83.5664 96.5114 72.6185C96.5114 61.6706 103.299 52.6499 115.744 51.5ZM121.256 51.5C133.701 52.6499 140.489 61.6706 140.489 72.6185C140.489 83.5664 133.701 92.5871 121.256 93.7369V51.5ZM5.51677 54.168H27.5623V91.8427H5.51677V54.168ZM209.438 54.168H231.483V91.8427H209.438V54.168Z" fill="black"/>
</svg>
