<svg width="29" height="29" viewBox="0 0 29 29" fill="none" xmlns="http://www.w3.org/2000/svg">
<path fill-rule="evenodd" clip-rule="evenodd" d="M6.92246 2.13022C9.34146 0.647215 12.1025 -0.0617844 14.8475 0.00421556H14.8595L14.8835 0.00521561C15.6785 0.0262156 16.4725 0.112216 17.2565 0.263216L17.2765 0.267216C20.0155 0.798216 22.6305 2.12422 24.7505 4.24422C26.5825 6.07622 27.8215 8.27722 28.4665 10.6082C28.5735 10.9832 28.6635 11.3582 28.7305 11.7332L28.7315 11.7372C28.8495 12.3492 28.9275 12.9682 28.9665 13.5882L28.9685 13.6272L28.9695 13.6392C28.9785 13.7982 28.9855 13.9562 28.9895 14.1142V14.1252C29.0785 17.6012 27.9255 21.1032 25.5315 23.9052L25.5095 23.9322L25.4985 23.9442C25.3025 24.1722 25.0975 24.3962 24.8835 24.6152L24.8805 24.6182C24.8605 24.6392 24.8395 24.6602 24.8195 24.6812L24.7895 24.7112L24.7505 24.7502L24.7115 24.7892L24.6815 24.8192C24.6605 24.8392 24.6395 24.8602 24.6185 24.8802L24.6155 24.8832C23.8765 25.6042 23.0885 26.2232 22.2525 26.7522L22.2105 26.7782L22.1955 26.7882C19.7445 28.3252 16.9325 29.0592 14.1355 28.9902C14.1295 28.9902 14.1245 28.9902 14.1185 28.9892H14.1105C13.3145 28.9682 12.5205 28.8822 11.7355 28.7302L11.7215 28.7282C10.9645 28.5812 10.2175 28.3742 9.48746 28.1062C9.34046 28.0532 9.19446 27.9972 9.04946 27.9372L9.03546 27.9312C8.73846 27.8142 8.44546 27.6822 8.15546 27.5402C6.74246 26.8532 5.41746 25.9232 4.24446 24.7502C2.85546 23.3612 1.80746 21.7602 1.10146 20.0522L1.09446 20.0362L1.08046 20.0012L1.07346 19.9852C0.923458 19.6172 0.789458 19.2442 0.670458 18.8662C0.503458 18.3442 0.364458 17.8102 0.264458 17.2612V17.2592C0.157458 16.7042 0.0824577 16.1452 0.0404577 15.5832C0.0224577 15.3452 0.00945767 15.1072 0.00445767 14.8682V14.8612C-0.0635423 12.1082 0.646458 9.34022 2.13346 6.91622C2.69646 5.98722 3.38146 5.11722 4.17746 4.31122L4.18046 4.30922C4.20146 4.28722 4.22246 4.26522 4.24446 4.24422C4.26546 4.22322 4.28646 4.20222 4.30746 4.18122L4.31246 4.17622C5.11946 3.38022 5.99446 2.69322 6.92246 2.13022ZM9.86946 27.1812C9.41746 27.0162 8.97246 26.8272 8.53546 26.6122C8.43246 26.5612 8.33046 26.5082 8.22746 26.4552L7.20646 22.5102L10.7215 18.9812L15.5365 20.2772L16.8245 25.0862L13.9405 27.9802C13.2565 27.9452 12.5855 27.8692 11.9265 27.7492C11.2315 27.5942 10.5435 27.4222 9.86946 27.1812ZM20.4935 26.5952C18.8755 27.3962 17.1295 27.8542 15.3655 27.9672L17.5315 25.7932L20.4935 26.5952ZM21.5835 16.9172L24.8325 17.7882L25.9155 21.7022C25.5425 22.2892 25.1385 22.8342 24.6885 23.3522L24.6325 23.4152L24.5765 23.4792L24.5185 23.5432L24.4695 23.5982L24.4605 23.6072L24.4105 23.6622L24.4005 23.6732L24.3515 23.7252L24.3385 23.7392L24.2915 23.7882L24.2745 23.8062L24.2315 23.8512L24.2075 23.8762L24.1705 23.9152L24.1075 23.9782L24.0435 24.0432L23.9795 24.1072L23.9155 24.1692L23.8535 24.2292L23.7925 24.2872C23.1495 24.8992 22.4605 25.4342 21.7365 25.8952C21.6965 25.8852 17.7905 24.8272 17.7905 24.8272L16.5025 20.0182L20.0215 16.4992L21.5835 16.9172ZM3.26446 21.9882L6.23846 22.7592L7.00746 25.7312C6.28146 25.2462 5.59246 24.6842 4.95146 24.0432C4.31146 23.4032 3.74946 22.7142 3.26446 21.9882ZM1.01146 15.0592L3.91146 12.1722L8.72146 13.4652L10.0135 18.2742L6.48746 21.7902L2.54246 20.7682C2.37046 20.4342 2.20546 20.0962 2.05846 19.7492C2.03446 19.6912 2.00946 19.6322 1.98546 19.5722C1.85946 19.2522 1.74046 18.9282 1.63446 18.5992C1.47646 18.1002 1.34746 17.5932 1.24846 17.0812C1.15146 16.5452 1.07546 16.0072 1.03446 15.4662C1.02546 15.3302 1.01746 15.1952 1.01146 15.0592ZM27.9675 15.3562C27.8565 17.1122 27.4045 18.8502 26.6105 20.4632L25.7975 17.5262L27.9675 15.3562ZM13.2105 9.68822L18.0185 10.9762L19.3065 15.7842L15.7875 19.3032L10.9795 18.0152L9.69146 13.2072L13.2105 9.68822ZM27.0035 9.40722L27.0065 9.41522C27.1895 9.89022 27.3555 10.3642 27.4925 10.8392C27.5925 11.1942 27.6775 11.5522 27.7465 11.9132L27.7475 11.9142C27.8635 12.5382 27.9435 13.1652 27.9765 13.7972L27.9795 13.8562L27.9825 13.9262L27.5305 14.3792C27.1985 14.7112 26.8675 15.0422 26.5355 15.3742L25.0885 16.8212L20.2805 15.5332L18.9925 10.7252L22.5935 7.12422L26.3785 8.08522C26.6115 8.52722 26.8205 8.96722 27.0035 9.40722ZM2.39846 8.50321L3.20646 11.4632L1.02746 13.6322C1.14046 11.8682 1.59746 10.1222 2.39846 8.50321ZM7.26946 3.09222L7.43846 3.13822C8.03946 3.30222 8.64046 3.46722 9.24246 3.63122L11.2055 4.16922L12.5035 8.98122L8.98746 12.4972L4.17346 11.2072L3.09646 7.26422C3.60246 6.46722 4.19946 5.71222 4.88946 5.01422L4.95146 4.95122L5.01546 4.88822L5.07646 4.82822C5.75846 4.16222 6.49546 3.58422 7.26946 3.09222ZM3.26846 11.6872C3.27346 11.7272 3.28446 11.7672 3.30046 11.8062C3.36346 11.9582 3.49646 12.0672 3.65246 12.1032L3.63746 12.0992V12.0982L3.76246 12.1152L3.76146 12.1122C3.73246 12.0952 3.59846 12.0152 3.48046 11.8972L3.28446 11.7482L3.26846 11.6872ZM3.76046 12.1112L3.76146 12.1122L3.76446 12.1142L3.76046 12.1112ZM12.1755 3.89322L15.0455 1.01222C15.7225 1.04222 16.3995 1.12022 17.0775 1.24722C17.8805 1.40722 18.6285 1.62222 19.3265 1.88822L19.3555 1.90022L19.4255 1.92722C19.4515 1.93722 19.4765 1.94722 19.5025 1.95722L19.5625 1.98122L20.8705 2.60622L21.8715 6.40622L18.2725 10.0052L13.4695 8.72222L12.1755 3.89322ZM22.0975 3.33722C22.7825 3.80422 23.4345 4.34322 24.0435 4.95122C24.6415 5.55022 25.1725 6.19122 25.6355 6.86522L22.8395 6.15522L22.0975 3.33722ZM13.6175 1.02822L11.4545 3.20022L8.51046 2.39422C10.1225 1.59822 11.8605 1.14222 13.6175 1.02822Z" fill="black"/>
</svg>
